<?xml version="1.0" encoding="UTF-8" standalone="no"?>
<!DOCTYPE svg PUBLIC "-//W3C//DTD SVG 1.1//EN"
 "http://www.w3.org/Graphics/SVG/1.1/DTD/svg11.dtd">
<!-- Generated by graphviz version 2.38.0 (20140413.2041)
 -->
<!-- Title: G Pages: 1 -->
<svg width="1213pt" height="1136pt"
 viewBox="0.00 0.00 1213.26 1136.00" xmlns="http://www.w3.org/2000/svg" xmlns:xlink="http://www.w3.org/1999/xlink">
<g id="graph0" class="graph" transform="scale(1 1) rotate(0) translate(4 1132)">
<title>G</title>
<polygon fill="#ffffff" stroke="none" points="-4,4 -4,-1132 1209.26,-1132 1209.26,4 -4,4"/>
<g id="clust1" class="cluster"><title>cluster_0</title>
<polygon fill="lightgrey" stroke="lightgrey" points="8,-170 8,-480 355.303,-480 355.303,-170 8,-170"/>
<text text-anchor="start" x="64.6517" y="-465.8" font-family="Times New Roman,serif" font-weight="bold" text-decoration="underline" font-size="14.00">Intra&#45;network</text>
<text text-anchor="start" x="151.652" y="-465.8" font-family="Times New Roman,serif" font-size="14.00">, or </text>
<text text-anchor="start" x="175.652" y="-465.8" font-family="Times New Roman,serif" font-weight="bold" text-decoration="underline" font-size="14.00">Enterprise Network</text>
</g>
<g id="clust2" class="cluster"><title>cluster_1</title>
<polygon fill="#dcdcdc" stroke="#dcdcdc" points="38,-200 38,-427 325.303,-427 325.303,-200 38,-200"/>
<text text-anchor="start" x="133.152" y="-412.8" font-family="Times New Roman,serif" font-weight="bold" text-decoration="underline" font-size="14.00">MQTT Domain</text>
</g>
<g id="clust3" class="cluster"><title>cluster_2</title>
<polygon fill="lightgrey" stroke="lightgrey" points="603.197,-8 603.197,-1120 1197.26,-1120 1197.26,-8 603.197,-8"/>
<text text-anchor="start" x="857.228" y="-1105.8" font-family="Times New Roman,serif" font-weight="bold" text-decoration="underline" font-size="14.00">Inter&#45;network</text>
</g>
<g id="clust4" class="cluster"><title>cluster_3</title>
<polygon fill="#dcdcdc" stroke="#dcdcdc" points="633.197,-38 633.197,-427 1167.26,-427 1167.26,-38 633.197,-38"/>
<text text-anchor="start" x="853.228" y="-412.8" font-family="Times New Roman,serif" font-weight="bold" text-decoration="underline" font-size="14.00">XMPP Domain</text>
</g>
<g id="clust5" class="cluster"><title>cluster_4</title>
<polygon fill="#dcdcdc" stroke="#dcdcdc" points="815.027,-457 815.027,-714 1127.46,-714 1127.46,-457 815.027,-457"/>
<text text-anchor="start" x="913.745" y="-699.8" font-family="Times New Roman,serif" font-weight="bold" text-decoration="underline" font-size="14.00">Federated Domain</text>
</g>
<g id="clust6" class="cluster"><title>cluster_5</title>
<polygon fill="#dcdcdc" stroke="#dcdcdc" points="814.377,-810 814.377,-1067 1127.46,-1067 1127.46,-810 814.377,-810"/>
<text text-anchor="start" x="913.42" y="-1052.8" font-family="Times New Roman,serif" font-weight="bold" text-decoration="underline" font-size="14.00">Federated Domain</text>
</g>
<!-- MQTT -->
<g id="node1" class="node"><title>MQTT</title>
<ellipse fill="white" stroke="black" cx="254.998" cy="-302" rx="40.1111" ry="26.7407"/>
<text text-anchor="middle" x="254.998" y="-305.8" font-family="Times New Roman,serif" font-size="14.00" fill="#000000">MQTT</text>
<text text-anchor="middle" x="254.998" y="-290.8" font-family="Times New Roman,serif" font-size="14.00" fill="#000000">Broker</text>
</g>
<!-- Bridge -->
<g id="node33" class="node"><title>Bridge</title>
<ellipse fill="white" stroke="black" cx="492.75" cy="-302" rx="34.394" ry="18"/>
<text text-anchor="middle" x="492.75" y="-298.3" font-family="Times New Roman,serif" font-size="14.00" fill="#000000">Bridge</text>
</g>
<!-- MQTT&#45;&gt;Bridge -->
<g id="edge4" class="edge"><title>MQTT&#45;&gt;Bridge</title>
<path fill="none" stroke="black" d="M305.484,-302C347.691,-302 407.783,-302 448.193,-302"/>
<polygon fill="black" stroke="black" points="305.458,-298.5 295.458,-302 305.458,-305.5 305.458,-298.5"/>
<polygon fill="black" stroke="black" points="448.274,-305.5 458.274,-302 448.274,-298.5 448.274,-305.5"/>
<text text-anchor="start" x="379.303" y="-333.8" font-family="Times New Roman,serif" font-weight="bold" font-size="14.00" fill="#000000">MQTT</text>
<text text-anchor="start" x="372.803" y="-319.8" font-family="Times New Roman,serif" font-size="14.00" fill="#000000">PUBLISH</text>
<text text-anchor="start" x="363.303" y="-305.8" font-family="Times New Roman,serif" font-size="14.00" fill="#000000">SUBSCRIBE</text>
</g>
<!-- XMPP -->
<g id="node2" class="node"><title>XMPP</title>
<ellipse fill="white" stroke="black" cx="702.088" cy="-302" rx="38.7821" ry="26.7407"/>
<text text-anchor="middle" x="702.088" y="-305.8" font-family="Times New Roman,serif" font-size="14.00" fill="#000000">XMPP</text>
<text text-anchor="middle" x="702.088" y="-290.8" font-family="Times New Roman,serif" font-size="14.00" fill="#000000">Broker</text>
</g>
<!-- XD1 -->
<g id="node6" class="node"><title>XD1</title>
<ellipse fill="white" stroke="black" cx="885.323" cy="-86" rx="36.2938" ry="18"/>
<text text-anchor="start" x="865.323" y="-83.3" font-family="Times New Roman,serif" font-size="14.00" fill="#000000">Thing</text>
<text text-anchor="start" x="898.323" y="-83.3" font-family="Times New Roman,serif" baseline-shift="sub" font-size="14.00" fill="#000000">1</text>
</g>
<!-- XMPP&#45;&gt;XD1 -->
<g id="edge6" class="edge"><title>XMPP&#45;&gt;XD1</title>
<path fill="none" stroke="black" d="M711.418,-265.36C719.757,-234.34 734.865,-189.814 758.979,-157 779.977,-128.426 816.164,-109.724 844.274,-98.7244"/>
<polygon fill="black" stroke="black" points="707.956,-264.768 708.846,-275.325 714.734,-266.517 707.956,-264.768"/>
<polygon fill="black" stroke="black" points="845.699,-101.929 853.842,-95.1513 843.25,-95.371 845.699,-101.929"/>
<text text-anchor="middle" x="780.979" y="-160.8" font-family="Times New Roman,serif" font-size="14.00" fill="#000000">JID</text>
</g>
<!-- XD2 -->
<g id="node7" class="node"><title>XD2</title>
<text text-anchor="middle" x="885.323" y="-136.3" font-family="Times New Roman,serif" font-size="14.00" fill="#000000">...</text>
</g>
<!-- XMPP&#45;&gt;XD2 -->
<!-- XD3 -->
<g id="node8" class="node"><title>XD3</title>
<ellipse fill="white" stroke="black" cx="885.323" cy="-194" rx="38.9931" ry="18"/>
<text text-anchor="start" x="863.323" y="-191.3" font-family="Times New Roman,serif" font-size="14.00" fill="#000000">Thing</text>
<text text-anchor="start" x="896.323" y="-191.3" font-family="Times New Roman,serif" baseline-shift="sub" font-size="14.00" fill="#000000">M</text>
</g>
<!-- XMPP&#45;&gt;XD3 -->
<g id="edge8" class="edge"><title>XMPP&#45;&gt;XD3</title>
<path fill="none" stroke="black" d="M732.787,-273.253C740.976,-265.943 750.066,-258.363 758.979,-252 785.195,-233.284 818.413,-218.239 844.065,-208.167"/>
<polygon fill="black" stroke="black" points="730.277,-270.805 725.248,-280.13 734.995,-275.977 730.277,-270.805"/>
<polygon fill="black" stroke="black" points="845.411,-211.399 853.496,-204.552 842.906,-204.863 845.411,-211.399"/>
<text text-anchor="middle" x="780.979" y="-255.8" font-family="Times New Roman,serif" font-size="14.00" fill="#000000">JID</text>
</g>
<!-- XC1 -->
<g id="node9" class="node"><title>XC1</title>
<ellipse fill="white" stroke="black" cx="885.323" cy="-248" rx="63.0888" ry="18"/>
<text text-anchor="start" x="844.823" y="-245.3" font-family="Times New Roman,serif" font-size="14.00" fill="#000000">Concentrator</text>
<text text-anchor="start" x="918.823" y="-245.3" font-family="Times New Roman,serif" baseline-shift="sub" font-size="14.00" fill="#000000">1</text>
</g>
<!-- XMPP&#45;&gt;XC1 -->
<g id="edge9" class="edge"><title>XMPP&#45;&gt;XC1</title>
<path fill="none" stroke="black" d="M746.795,-286.884C750.904,-285.541 755.014,-284.227 758.979,-283 781.721,-275.965 806.976,-268.792 828.822,-262.787"/>
<polygon fill="black" stroke="black" points="745.666,-283.571 737.277,-290.043 747.871,-290.214 745.666,-283.571"/>
<polygon fill="black" stroke="black" points="829.875,-266.127 838.599,-260.114 828.03,-259.375 829.875,-266.127"/>
<text text-anchor="middle" x="780.979" y="-286.8" font-family="Times New Roman,serif" font-size="14.00" fill="#000000">JID</text>
</g>
<!-- XC2 -->
<g id="node10" class="node"><title>XC2</title>
<text text-anchor="middle" x="885.323" y="-298.3" font-family="Times New Roman,serif" font-size="14.00" fill="#000000">...</text>
</g>
<!-- XMPP&#45;&gt;XC2 -->
<!-- XC3 -->
<g id="node11" class="node"><title>XC3</title>
<ellipse fill="white" stroke="black" cx="885.323" cy="-356" rx="64.189" ry="18"/>
<text text-anchor="start" x="843.823" y="-353.3" font-family="Times New Roman,serif" font-size="14.00" fill="#000000">Concentrator</text>
<text text-anchor="start" x="917.823" y="-353.3" font-family="Times New Roman,serif" baseline-shift="sub" font-size="14.00" fill="#000000">C</text>
</g>
<!-- XMPP&#45;&gt;XC3 -->
<g id="edge11" class="edge"><title>XMPP&#45;&gt;XC3</title>
<path fill="none" stroke="black" d="M747.669,-315.283C772.746,-322.755 804.228,-332.135 830.653,-340.009"/>
<polygon fill="black" stroke="black" points="748.615,-311.913 738.032,-312.412 746.616,-318.622 748.615,-311.913"/>
<polygon fill="black" stroke="black" points="829.926,-343.444 840.509,-342.945 831.925,-336.735 829.926,-343.444"/>
<text text-anchor="middle" x="780.979" y="-334.8" font-family="Times New Roman,serif" font-size="14.00" fill="#000000">JID</text>
</g>
<!-- XB1 -->
<g id="node18" class="node"><title>XB1</title>
<ellipse fill="white" stroke="black" cx="885.323" cy="-558" rx="40.0939" ry="18"/>
<text text-anchor="start" x="862.323" y="-555.3" font-family="Times New Roman,serif" font-size="14.00" fill="#000000">Broker</text>
<text text-anchor="start" x="901.323" y="-555.3" font-family="Times New Roman,serif" baseline-shift="sub" font-size="14.00" fill="#000000">1</text>
</g>
<!-- XMPP&#45;&gt;XB1 -->
<g id="edge18" class="edge"><title>XMPP&#45;&gt;XB1</title>
<path fill="none" stroke="black" d="M726.026,-334.401C762.506,-385.93 833.004,-485.511 866.201,-532.401"/>
<polygon fill="black" stroke="black" points="728.773,-332.223 720.138,-326.084 723.06,-336.268 728.773,-332.223"/>
<polygon fill="black" stroke="black" points="863.5,-534.644 872.135,-540.784 869.214,-530.6 863.5,-534.644"/>
<text text-anchor="middle" x="780.979" y="-441.8" font-family="Times New Roman,serif" font-size="14.00" fill="#000000">Domain</text>
</g>
<!-- XB2 -->
<g id="node19" class="node"><title>XB2</title>
<text text-anchor="middle" x="885.323" y="-758.3" font-family="Times New Roman,serif" font-size="14.00" fill="#000000">...</text>
</g>
<!-- XMPP&#45;&gt;XB2 -->
<!-- XB3 -->
<g id="node20" class="node"><title>XB3</title>
<ellipse fill="white" stroke="black" cx="885.323" cy="-911" rx="40.8928" ry="18"/>
<text text-anchor="start" x="861.823" y="-908.3" font-family="Times New Roman,serif" font-size="14.00" fill="#000000">Broker</text>
<text text-anchor="start" x="900.823" y="-908.3" font-family="Times New Roman,serif" baseline-shift="sub" font-size="14.00" fill="#000000">B</text>
</g>
<!-- XMPP&#45;&gt;XB3 -->
<g id="edge26" class="edge"><title>XMPP&#45;&gt;XB3</title>
<path fill="none" stroke="black" d="M704.165,-339.327C707.193,-418.024 718.434,-606.208 758.979,-758 775.292,-819.073 767.598,-846.482 814.377,-889 820.741,-894.785 828.618,-899.049 836.766,-902.191"/>
<polygon fill="black" stroke="black" points="707.65,-338.831 703.79,-328.964 700.654,-339.084 707.65,-338.831"/>
<polygon fill="black" stroke="black" points="835.788,-905.554 846.381,-905.389 837.997,-898.912 835.788,-905.554"/>
<text text-anchor="middle" x="780.979" y="-879.8" font-family="Times New Roman,serif" font-size="14.00" fill="#000000">Domain</text>
</g>
<!-- MD1 -->
<g id="node3" class="node"><title>MD1</title>
<ellipse fill="white" stroke="black" cx="106.347" cy="-356" rx="36.2938" ry="18"/>
<text text-anchor="start" x="86.3466" y="-353.3" font-family="Times New Roman,serif" font-size="14.00" fill="#000000">Thing</text>
<text text-anchor="start" x="119.347" y="-353.3" font-family="Times New Roman,serif" baseline-shift="sub" font-size="14.00" fill="#000000">1</text>
</g>
<!-- MD1&#45;&gt;MQTT -->
<g id="edge1" class="edge"><title>MD1&#45;&gt;MQTT</title>
<path fill="none" stroke="black" d="M145.658,-341.893C165.327,-334.651 189.388,-325.791 209.834,-318.262"/>
<polygon fill="black" stroke="black" points="144.145,-338.72 135.971,-345.46 146.564,-345.289 144.145,-338.72"/>
<polygon fill="black" stroke="black" points="211.071,-321.537 219.245,-314.797 208.652,-314.968 211.071,-321.537"/>
<text text-anchor="middle" x="179.693" y="-339.8" font-family="Times New Roman,serif" font-size="14.00" fill="#000000">Topic</text>
</g>
<!-- MD2 -->
<g id="node4" class="node"><title>MD2</title>
<text text-anchor="middle" x="106.347" y="-298.3" font-family="Times New Roman,serif" font-size="14.00" fill="#000000">...</text>
</g>
<!-- MD2&#45;&gt;MQTT -->
<!-- MD3 -->
<g id="node5" class="node"><title>MD3</title>
<ellipse fill="white" stroke="black" cx="106.347" cy="-248" rx="38.1938" ry="18"/>
<text text-anchor="start" x="84.8466" y="-245.3" font-family="Times New Roman,serif" font-size="14.00" fill="#000000">Thing</text>
<text text-anchor="start" x="117.847" y="-245.3" font-family="Times New Roman,serif" baseline-shift="sub" font-size="14.00" fill="#000000">N</text>
</g>
<!-- MD3&#45;&gt;MQTT -->
<g id="edge3" class="edge"><title>MD3&#45;&gt;MQTT</title>
<path fill="none" stroke="black" d="M146.692,-262.488C166.193,-269.668 189.809,-278.364 209.917,-285.769"/>
<polygon fill="black" stroke="black" points="147.617,-259.099 137.024,-258.928 145.198,-265.668 147.617,-259.099"/>
<polygon fill="black" stroke="black" points="208.88,-289.116 219.473,-289.287 211.298,-282.547 208.88,-289.116"/>
<text text-anchor="middle" x="179.693" y="-283.8" font-family="Times New Roman,serif" font-size="14.00" fill="#000000">Topic</text>
</g>
<!-- CD11 -->
<g id="node12" class="node"><title>CD11</title>
<ellipse fill="white" stroke="black" cx="1090.46" cy="-86" rx="42.4939" ry="18"/>
<text text-anchor="start" x="1065.96" y="-83.3" font-family="Times New Roman,serif" font-size="14.00" fill="#000000">Thing</text>
<text text-anchor="start" x="1098.96" y="-83.3" font-family="Times New Roman,serif" baseline-shift="sub" font-size="14.00" fill="#000000">1,1</text>
</g>
<!-- XC1&#45;&gt;CD11 -->
<g id="edge12" class="edge"><title>XC1&#45;&gt;CD11</title>
<path fill="none" stroke="black" d="M940.284,-230.13C943.805,-227.489 947.001,-224.464 949.668,-221 983.636,-176.871 927.239,-135.299 967.668,-97 987.039,-78.6486 1016.75,-75.6651 1041.97,-77.383"/>
<polygon fill="black" stroke="black" points="938.167,-227.327 931.575,-235.621 941.901,-233.248 938.167,-227.327"/>
<polygon fill="black" stroke="black" points="1041.82,-80.8842 1052.1,-78.333 1042.47,-73.9147 1041.82,-80.8842"/>
<text text-anchor="middle" x="996.668" y="-130.8" font-family="Times New Roman,serif" font-size="14.00" fill="#000000">Node ID</text>
<text text-anchor="middle" x="996.668" y="-115.8" font-family="Times New Roman,serif" font-size="14.00" fill="#000000">Source ID</text>
<text text-anchor="middle" x="996.668" y="-100.8" font-family="Times New Roman,serif" font-size="14.00" fill="#000000">Partition</text>
</g>
<!-- CD12 -->
<g id="node13" class="node"><title>CD12</title>
<text text-anchor="middle" x="1090.46" y="-136.3" font-family="Times New Roman,serif" font-size="14.00" fill="#000000">...</text>
</g>
<!-- XC1&#45;&gt;CD12 -->
<!-- CD13 -->
<g id="node14" class="node"><title>CD13</title>
<ellipse fill="white" stroke="black" cx="1090.46" cy="-194" rx="46.2923" ry="18"/>
<text text-anchor="start" x="1062.96" y="-191.3" font-family="Times New Roman,serif" font-size="14.00" fill="#000000">Thing</text>
<text text-anchor="start" x="1095.96" y="-191.3" font-family="Times New Roman,serif" baseline-shift="sub" font-size="14.00" fill="#000000">1,N₁</text>
</g>
<!-- XC1&#45;&gt;CD13 -->
<g id="edge14" class="edge"><title>XC1&#45;&gt;CD13</title>
<path fill="none" stroke="black" d="M937.688,-229.869C941.988,-227.26 946.062,-224.315 949.668,-221 962.255,-209.428 953.02,-195.819 967.668,-187 990.792,-173.077 1021.08,-174.751 1045.66,-179.944"/>
<polygon fill="black" stroke="black" points="935.759,-226.933 928.622,-234.764 939.085,-233.093 935.759,-226.933"/>
<polygon fill="black" stroke="black" points="1044.93,-183.367 1055.47,-182.259 1046.54,-176.554 1044.93,-183.367"/>
<text text-anchor="middle" x="996.668" y="-220.8" font-family="Times New Roman,serif" font-size="14.00" fill="#000000">Node ID</text>
<text text-anchor="middle" x="996.668" y="-205.8" font-family="Times New Roman,serif" font-size="14.00" fill="#000000">Source ID</text>
<text text-anchor="middle" x="996.668" y="-190.8" font-family="Times New Roman,serif" font-size="14.00" fill="#000000">Partition</text>
</g>
<!-- CDC1 -->
<g id="node15" class="node"><title>CDC1</title>
<ellipse fill="white" stroke="black" cx="1090.46" cy="-248" rx="43.5923" ry="18"/>
<text text-anchor="start" x="1064.96" y="-245.3" font-family="Times New Roman,serif" font-size="14.00" fill="#000000">Thing</text>
<text text-anchor="start" x="1097.96" y="-245.3" font-family="Times New Roman,serif" baseline-shift="sub" font-size="14.00" fill="#000000">C,1</text>
</g>
<!-- XC3&#45;&gt;CDC1 -->
<g id="edge15" class="edge"><title>XC3&#45;&gt;CDC1</title>
<path fill="none" stroke="black" d="M939.225,-337.975C943.058,-335.362 946.611,-332.386 949.668,-329 967.755,-308.967 947.524,-288.964 967.668,-271 986.344,-254.344 1013.19,-248.075 1036.92,-246.192"/>
<polygon fill="black" stroke="black" points="937.307,-335.043 930.47,-343.136 940.862,-341.073 937.307,-335.043"/>
<polygon fill="black" stroke="black" points="1037.42,-249.67 1047.22,-245.625 1037.04,-242.68 1037.42,-249.67"/>
<text text-anchor="middle" x="996.668" y="-304.8" font-family="Times New Roman,serif" font-size="14.00" fill="#000000">Node ID</text>
<text text-anchor="middle" x="996.668" y="-289.8" font-family="Times New Roman,serif" font-size="14.00" fill="#000000">Source ID</text>
<text text-anchor="middle" x="996.668" y="-274.8" font-family="Times New Roman,serif" font-size="14.00" fill="#000000">Partition</text>
</g>
<!-- CDC2 -->
<g id="node16" class="node"><title>CDC2</title>
<text text-anchor="middle" x="1090.46" y="-298.3" font-family="Times New Roman,serif" font-size="14.00" fill="#000000">...</text>
</g>
<!-- XC3&#45;&gt;CDC2 -->
<!-- CDC3 -->
<g id="node17" class="node"><title>CDC3</title>
<ellipse fill="white" stroke="black" cx="1090.46" cy="-356" rx="46.5926" ry="18"/>
<text text-anchor="start" x="1062.46" y="-353.3" font-family="Times New Roman,serif" font-size="14.00" fill="#000000">Thing</text>
<text text-anchor="start" x="1095.46" y="-353.3" font-family="Times New Roman,serif" baseline-shift="sub" font-size="14.00" fill="#000000">C,Nₜ</text>
</g>
<!-- XC3&#45;&gt;CDC3 -->
<g id="edge17" class="edge"><title>XC3&#45;&gt;CDC3</title>
<path fill="none" stroke="black" d="M959.906,-356C984.149,-356 1010.7,-356 1033.42,-356"/>
<polygon fill="black" stroke="black" points="959.763,-352.5 949.763,-356 959.762,-359.5 959.763,-352.5"/>
<polygon fill="black" stroke="black" points="1033.57,-359.5 1043.57,-356 1033.57,-352.5 1033.57,-359.5"/>
<text text-anchor="middle" x="996.668" y="-389.8" font-family="Times New Roman,serif" font-size="14.00" fill="#000000">Node ID</text>
<text text-anchor="middle" x="996.668" y="-374.8" font-family="Times New Roman,serif" font-size="14.00" fill="#000000">Source ID</text>
<text text-anchor="middle" x="996.668" y="-359.8" font-family="Times New Roman,serif" font-size="14.00" fill="#000000">Partition</text>
</g>
<!-- N1 -->
<g id="node21" class="node"><title>N1</title>
<ellipse fill="white" stroke="black" cx="1090.46" cy="-494" rx="7" ry="7"/>
</g>
<!-- XB1&#45;&gt;N1 -->
<g id="edge19" class="edge"><title>XB1&#45;&gt;N1</title>
<path fill="none" stroke="black" d="M918.961,-547.717C963.305,-533.747 1040.84,-509.319 1073.86,-498.916"/>
<polygon fill="black" stroke="black" points="1075.07,-502.205 1083.55,-495.862 1072.96,-495.529 1075.07,-502.205"/>
</g>
<!-- N2 -->
<g id="node22" class="node"><title>N2</title>
<ellipse fill="white" stroke="black" cx="1090.46" cy="-526" rx="7" ry="7"/>
</g>
<!-- XB1&#45;&gt;N2 -->
<g id="edge20" class="edge"><title>XB1&#45;&gt;N2</title>
<path fill="none" stroke="black" d="M923.582,-552.131C968.264,-545.092 1041.15,-533.61 1073.33,-528.542"/>
<polygon fill="black" stroke="black" points="1073.88,-531.998 1083.21,-526.985 1072.79,-525.083 1073.88,-531.998"/>
</g>
<!-- N3 -->
<g id="node23" class="node"><title>N3</title>
<ellipse fill="white" stroke="black" cx="1090.46" cy="-558" rx="7" ry="7"/>
</g>
<!-- XB1&#45;&gt;N3 -->
<g id="edge21" class="edge"><title>XB1&#45;&gt;N3</title>
<path fill="none" stroke="black" d="M925.973,-558C970.817,-558 1041.7,-558 1073.32,-558"/>
<polygon fill="black" stroke="black" points="1073.37,-561.5 1083.37,-558 1073.37,-554.5 1073.37,-561.5"/>
</g>
<!-- N4 -->
<g id="node24" class="node"><title>N4</title>
<ellipse fill="white" stroke="black" cx="1090.46" cy="-590" rx="7" ry="7"/>
</g>
<!-- XB1&#45;&gt;N4 -->
<g id="edge22" class="edge"><title>XB1&#45;&gt;N4</title>
<path fill="none" stroke="black" d="M923.582,-563.869C968.264,-570.908 1041.15,-582.39 1073.33,-587.458"/>
<polygon fill="black" stroke="black" points="1072.79,-590.917 1083.21,-589.015 1073.88,-584.002 1072.79,-590.917"/>
</g>
<!-- N5 -->
<g id="node25" class="node"><title>N5</title>
<ellipse fill="white" stroke="black" cx="1090.46" cy="-622" rx="7" ry="7"/>
</g>
<!-- XB1&#45;&gt;N5 -->
<g id="edge23" class="edge"><title>XB1&#45;&gt;N5</title>
<path fill="none" stroke="black" d="M918.961,-568.283C963.305,-582.253 1040.84,-606.681 1073.86,-617.084"/>
<polygon fill="black" stroke="black" points="1072.96,-620.471 1083.55,-620.138 1075.07,-613.795 1072.96,-620.471"/>
</g>
<!-- N6 -->
<g id="node26" class="node"><title>N6</title>
<ellipse fill="white" stroke="black" cx="1090.46" cy="-654" rx="7" ry="7"/>
</g>
<!-- XB1&#45;&gt;N6 -->
<g id="edge24" class="edge"><title>XB1&#45;&gt;N6</title>
<path fill="none" stroke="black" d="M920.814,-566.847C930.557,-570.162 940.888,-574.498 949.668,-580 959.254,-586.008 958.559,-591.29 967.668,-598 998.399,-620.64 1008.67,-622.774 1043.67,-638 1053.44,-642.252 1064.74,-646.21 1073.68,-649.126"/>
<polygon fill="black" stroke="black" points="1072.84,-652.531 1083.43,-652.206 1074.95,-645.856 1072.84,-652.531"/>
</g>
<!-- M1 -->
<g id="node27" class="node"><title>M1</title>
<ellipse fill="white" stroke="black" cx="1090.46" cy="-847" rx="7" ry="7"/>
</g>
<!-- XB3&#45;&gt;M1 -->
<g id="edge27" class="edge"><title>XB3&#45;&gt;M1</title>
<path fill="none" stroke="black" d="M918.765,-900.574C933.657,-895.803 951.55,-890.09 967.668,-885 1005.61,-873.016 1050.28,-859.139 1073.55,-851.926"/>
<polygon fill="black" stroke="black" points="1074.86,-855.185 1083.38,-848.883 1072.79,-848.498 1074.86,-855.185"/>
</g>
<!-- M2 -->
<g id="node28" class="node"><title>M2</title>
<ellipse fill="white" stroke="black" cx="1090.46" cy="-879" rx="7" ry="7"/>
</g>
<!-- XB3&#45;&gt;M2 -->
<g id="edge28" class="edge"><title>XB3&#45;&gt;M2</title>
<path fill="none" stroke="black" d="M924.056,-905.056C968.619,-898.036 1040.75,-886.673 1072.99,-881.596"/>
<polygon fill="black" stroke="black" points="1073.91,-884.993 1083.25,-879.979 1072.82,-878.078 1073.91,-884.993"/>
</g>
<!-- M3 -->
<g id="node29" class="node"><title>M3</title>
<ellipse fill="white" stroke="black" cx="1090.46" cy="-911" rx="7" ry="7"/>
</g>
<!-- XB3&#45;&gt;M3 -->
<g id="edge29" class="edge"><title>XB3&#45;&gt;M3</title>
<path fill="none" stroke="black" d="M926.457,-911C971.365,-911 1041.94,-911 1073.4,-911"/>
<polygon fill="black" stroke="black" points="1073.41,-914.5 1083.41,-911 1073.41,-907.5 1073.41,-914.5"/>
</g>
<!-- M4 -->
<g id="node30" class="node"><title>M4</title>
<ellipse fill="white" stroke="black" cx="1090.46" cy="-943" rx="7" ry="7"/>
</g>
<!-- XB3&#45;&gt;M4 -->
<g id="edge30" class="edge"><title>XB3&#45;&gt;M4</title>
<path fill="none" stroke="black" d="M924.056,-916.944C968.619,-923.964 1040.75,-935.327 1072.99,-940.404"/>
<polygon fill="black" stroke="black" points="1072.82,-943.922 1083.25,-942.021 1073.91,-937.007 1072.82,-943.922"/>
</g>
<!-- M5 -->
<g id="node31" class="node"><title>M5</title>
<ellipse fill="white" stroke="black" cx="1090.46" cy="-975" rx="7" ry="7"/>
</g>
<!-- XB3&#45;&gt;M5 -->
<g id="edge31" class="edge"><title>XB3&#45;&gt;M5</title>
<path fill="none" stroke="black" d="M918.961,-921.283C963.305,-935.253 1040.84,-959.681 1073.86,-970.084"/>
<polygon fill="black" stroke="black" points="1072.96,-973.471 1083.55,-973.138 1075.07,-966.795 1072.96,-973.471"/>
</g>
<!-- M6 -->
<g id="node32" class="node"><title>M6</title>
<ellipse fill="white" stroke="black" cx="1090.46" cy="-1007" rx="7" ry="7"/>
</g>
<!-- XB3&#45;&gt;M6 -->
<g id="edge32" class="edge"><title>XB3&#45;&gt;M6</title>
<path fill="none" stroke="black" d="M911.441,-925.098C942.087,-941.987 995.75,-970.557 1043.67,-991 1053.47,-995.183 1064.78,-999.14 1073.7,-1002.07"/>
<polygon fill="black" stroke="black" points="1072.85,-1005.48 1083.44,-1005.18 1074.97,-998.806 1072.85,-1005.48"/>
</g>
<!-- Bridge&#45;&gt;XMPP -->
<g id="edge5" class="edge"><title>Bridge&#45;&gt;XMPP</title>
<path fill="none" stroke="black" d="M537.579,-302C571.308,-302 617.889,-302 652.707,-302"/>
<polygon fill="black" stroke="black" points="537.524,-298.5 527.524,-302 537.524,-305.5 537.524,-298.5"/>
<polygon fill="black" stroke="black" points="653.108,-305.5 663.108,-302 653.108,-298.5 653.108,-305.5"/>
<text text-anchor="start" x="549.197" y="-347.8" font-family="Times New Roman,serif" font-weight="bold" font-size="14.00" fill="#000000">XMPP</text>
<text text-anchor="start" x="546.197" y="-333.8" font-family="Times New Roman,serif" font-size="14.00" fill="#000000">message</text>
<text text-anchor="start" x="564.697" y="-319.8" font-family="Times New Roman,serif" font-size="14.00" fill="#000000">iq</text>
<text text-anchor="start" x="545.197" y="-305.8" font-family="Times New Roman,serif" font-size="14.00" fill="#000000">presence</text>
</g>
</g>
</svg>
